# xmcd
#
# Track frame offsets:
#	150
#	12401
#	25886
#	37780
#	49229
#	60196
#	72037
#	83601
#	98529
#	109077
#
# Disc length: 1589 seconds
#
# Revision: 1
# Processed by: cddbd v1.4b41PL1 Copyright (c) Steve Scherf et al.
# Submitted via: audiograbber 1.80
#
DISCID=6906330a
DTITLE=Various Artist - Grand Ole Country Collection Disc 1
DYEAR=1900
DGENRE=
TTITLE0=I Walk The Line
TTITLE1=Rhinstone Campell
TTITLE2=I Hang My Head and Cry
TTITLE3=Walking After Midnight
TTITLE4=Tender Years
TTITLE5=Crazy Dreams
TTITLE6=Little Green Apples
TTITLE7=Yesterday When I was Young
TTITLE8=King Of The Road
TTITLE9=Blue Suede Shoes
EXTD=
EXTT0=
EXTT1=
EXTT2=
EXTT3=
EXTT4=
EXTT5=
EXTT6=
EXTT7=
EXTT8=
EXTT9=
PLAYORDER=
